<?xml version="1.0" encoding="utf-8" ?>
<svg xmlns="http://www.w3.org/2000/svg" xmlns:xlink="http://www.w3.org/1999/xlink" width="100" height="100" shape-rendering="crispEdges">
	<path d="M0 0L100 0L100 100L0 100L0 0Z"/>
	<path fill="blue" transform="translate(-60 40)" d="M60 60L120 60Q120 58.5271 119.928 57.0559Q119.855 55.5848 119.711 54.119Q119.567 52.6531 119.351 51.1962Q119.134 49.7392 118.847 48.2946Q118.56 46.85 118.202 45.4212Q117.844 43.9924 117.416 42.5829Q116.989 41.1734 116.493 39.7866Q115.996 38.3998 115.433 37.039Q114.869 35.6782 114.239 34.3467Q113.61 33.0152 112.915 31.7162Q112.221 30.4172 111.464 29.1538Q110.706 27.8905 109.888 26.6658Q109.07 25.4411 108.192 24.258Q107.315 23.075 106.381 21.9364Q105.446 20.7978 104.457 19.7065Q103.468 18.6151 102.426 17.5736Q101.385 16.5321 100.294 15.5429Q99.2022 14.5538 98.0636 13.6194Q96.925 12.685 95.742 11.8075Q94.5589 10.9301 93.3342 10.1118Q92.1095 9.29351 90.8462 8.53628Q89.5828 7.77905 88.2838 7.08472Q86.9848 6.39039 85.6533 5.76064Q84.3218 5.13089 82.961 4.56723Q81.6002 4.00357 80.2134 3.50736Q78.8266 3.01114 77.4171 2.58358Q76.0076 2.15601 74.5788 1.79812Q73.15 1.44023 71.7054 1.15288Q70.2608 0.865531 68.8038 0.649409Q67.3468 0.433287 65.881 0.288916Q64.4152 0.144545 62.9441 0.0722726Q61.4729 0 60 0L60 60Z"/>
	<path transform="translate(-40 60)" d="M40 40L80 40Q80 39.0181 79.9518 38.0373Q79.9036 37.0565 79.8074 36.0793Q79.7111 35.1021 79.5671 34.1308Q79.423 33.1595 79.2314 32.1964Q79.0398 31.2333 78.8012 30.2808Q78.5626 29.3283 78.2776 28.3886Q77.9926 27.4489 77.6618 26.5244Q77.3309 25.5999 76.9552 24.6927Q76.5794 23.7855 76.1596 22.8978Q75.7397 22.0101 75.2768 21.1441Q74.8139 20.2781 74.3091 19.4359Q73.8043 18.5936 73.2588 17.7772Q72.7132 16.9607 72.1283 16.172Q71.5433 15.3833 70.9204 14.6243Q70.2975 13.8652 69.638 13.1376Q68.9786 12.4101 68.2843 11.7157Q67.5899 11.0214 66.8624 10.362Q66.1348 9.70252 65.3757 9.07958Q64.6167 8.45664 63.828 7.8717Q63.0393 7.28675 62.2228 6.74121Q61.4063 6.19568 60.5641 5.69085Q59.7219 5.18603 58.8559 4.72315Q57.9899 4.26026 57.1022 3.84043Q56.2145 3.42059 55.3073 3.04482Q54.4001 2.66904 53.4756 2.33824Q52.551 2.00743 51.6114 1.72239Q50.6717 1.43734 49.7192 1.19875Q48.7667 0.960157 47.8036 0.768589Q46.8405 0.577021 45.8692 0.43294Q44.8979 0.288858 43.9207 0.192611Q42.9435 0.0963635 41.9627 0.0481817Q40.9819 0 40 0L40 40Z"/>
</svg>
