<?xml version="1.0" encoding="utf-8" ?>
<svg xmlns="http://www.w3.org/2000/svg" xmlns:xlink="http://www.w3.org/1999/xlink" width="100" height="100" shape-rendering="crispEdges">
	<path d="M0 0L100 0L100 100L0 100L0 0Z"/>
	<path fill="white" d="M100 50Q100 51.2274 99.9398 52.4534Q99.8795 53.6793 99.7592 54.9009Q99.6389 56.1224 99.4588 57.3365Q99.2787 58.5507 99.0393 59.7545Q98.7998 60.9584 98.5016 62.149Q98.2033 63.3396 97.847 64.5142Q97.4907 65.6888 97.0772 66.8445Q96.6637 68.0002 96.194 69.1342Q95.7242 70.2682 95.1995 71.3777Q94.6747 72.4873 94.0961 73.5698Q93.5175 74.6523 92.8864 75.7051Q92.2554 76.7579 91.5735 77.7785Q90.8915 78.7991 90.1604 79.785Q89.4292 80.7708 88.6505 81.7197Q87.8718 82.6685 87.0476 83.5779Q86.2233 84.4874 85.3553 85.3553Q84.4874 86.2233 83.5779 87.0475Q82.6685 87.8718 81.7197 88.6505Q80.7708 89.4292 79.785 90.1604Q78.7991 90.8915 77.7785 91.5735Q76.7579 92.2554 75.7051 92.8864Q74.6523 93.5175 73.5698 94.0961Q72.4873 94.6747 71.3777 95.1995Q70.2682 95.7242 69.1342 96.194Q68.0002 96.6637 66.8445 97.0772Q65.6888 97.4907 64.5142 97.847Q63.3396 98.2033 62.149 98.5015Q60.9584 98.7998 59.7545 99.0393Q58.5507 99.2787 57.3365 99.4588Q56.1224 99.6389 54.9009 99.7592Q53.6793 99.8795 52.4534 99.9398Q51.2274 100 50 100Q48.7726 100 47.5466 99.9398Q46.3207 99.8795 45.0991 99.7592Q43.8776 99.6389 42.6635 99.4588Q41.4493 99.2787 40.2455 99.0393Q39.0416 98.7998 37.851 98.5016Q36.6603 98.2033 35.4858 97.847Q34.3112 97.4907 33.1555 97.0772Q31.9998 96.6637 30.8658 96.194Q29.7318 95.7242 28.6222 95.1995Q27.5127 94.6747 26.4302 94.0961Q25.3477 93.5175 24.2949 92.8864Q23.2421 92.2554 22.2215 91.5735Q21.2009 90.8915 20.215 90.1604Q19.2292 89.4292 18.2803 88.6505Q17.3315 87.8718 16.4221 87.0476Q15.5126 86.2233 14.6447 85.3553Q13.7767 84.4874 12.9524 83.5779Q12.1282 82.6685 11.3495 81.7197Q10.5708 80.7708 9.83962 79.785Q9.10844 78.7991 8.42652 77.7785Q7.74459 76.7579 7.11357 75.7051Q6.48254 74.6523 5.90394 73.5698Q5.32533 72.4873 4.80053 71.3777Q4.27574 70.2682 3.80602 69.1342Q3.33631 68.0002 2.9228 66.8445Q2.50929 65.6888 2.15298 64.5142Q1.79668 63.3396 1.49844 62.149Q1.2002 60.9584 0.960736 59.7545Q0.721276 58.5507 0.541174 57.3365Q0.361073 56.1224 0.240764 54.9009Q0.120454 53.6793 0.0602272 52.4534Q0 51.2274 0 50Q0 48.7726 0.0602272 47.5466Q0.120454 46.3207 0.240764 45.0991Q0.361073 43.8776 0.541174 42.6635Q0.721276 41.4493 0.960736 40.2455Q1.2002 39.0416 1.49844 37.851Q1.79668 36.6603 2.15298 35.4858Q2.50929 34.3112 2.9228 33.1555Q3.33631 31.9998 3.80602 30.8658Q4.27574 29.7318 4.80053 28.6222Q5.32533 27.5127 5.90394 26.4302Q6.48254 25.3477 7.11357 24.2949Q7.74459 23.2421 8.42652 22.2215Q9.10844 21.2009 9.83962 20.215Q10.5708 19.2292 11.3495 18.2803Q12.1282 17.3315 12.9524 16.4221Q13.7767 15.5126 14.6447 14.6447Q15.5126 13.7767 16.4221 12.9524Q17.3315 12.1282 18.2803 11.3495Q19.2292 10.5708 20.215 9.83962Q21.2009 9.10844 22.2215 8.42652Q23.2421 7.74459 24.2949 7.11357Q25.3477 6.48254 26.4302 5.90394Q27.5127 5.32533 28.6222 4.80053Q29.7318 4.27574 30.8658 3.80602Q31.9998 3.33631 33.1555 2.9228Q34.3112 2.50929 35.4858 2.15298Q36.6603 1.79668 37.851 1.49844Q39.0416 1.2002 40.2455 0.960736Q41.4493 0.721276 42.6635 0.541174Q43.8776 0.361073 45.0991 0.240764Q46.3207 0.120454 47.5466 0.0602272Q48.7726 0 50 0Q51.2274 0 52.4534 0.0602272Q53.6793 0.120454 54.9009 0.240764Q56.1224 0.361073 57.3365 0.541174Q58.5507 0.721276 59.7545 0.960736Q60.9584 1.2002 62.149 1.49844Q63.3396 1.79668 64.5142 2.15298Q65.6888 2.50929 66.8445 2.9228Q68.0002 3.33631 69.1342 3.80602Q70.2682 4.27574 71.3777 4.80053Q72.4873 5.32533 73.5698 5.90394Q74.6523 6.48254 75.7051 7.11357Q76.7579 7.74459 77.7785 8.42652Q78.7991 9.10844 79.785 9.83962Q80.7708 10.5708 81.7197 11.3495Q82.6685 12.1282 83.5779 12.9524Q84.4874 13.7767 85.3553 14.6447Q86.2233 15.5126 87.0475 16.4221Q87.8718 17.3315 88.6505 18.2803Q89.4292 19.2292 90.1604 20.215Q90.8915 21.2009 91.5735 22.2215Q92.2554 23.2421 92.8864 24.2949Q93.5175 25.3477 94.0961 26.4302Q94.6747 27.5127 95.1995 28.6222Q95.7242 29.7318 96.194 30.8658Q96.6637 31.9998 97.0772 33.1555Q97.4907 34.3112 97.847 35.4858Q98.2033 36.6603 98.5015 37.851Q98.7998 39.0416 99.0393 40.2455Q99.2787 41.4493 99.4588 42.6635Q99.6389 43.8776 99.7592 45.0991Q99.8795 46.3207 99.9398 47.5466Q100 48.7726 100 50Z"/>
</svg>
